{"title":"Sword Art Online II - Cap-01 [p]","uid":10518783,"size":94355991,"categoryP":"video","categoryS":"tv_shows","magnet":"?xt=urn:btih:bb6cedbe8223a5d39117a2ce1d81ea97bd79b572&amp;dn=Sword+Art+Online+II+-+Cap-01+%5Bp%5D&amp;tr=udp%3A%2F%2Ftracker.openbittorrent.com%3A80&amp;tr=udp%3A%2F%2Fopen.demonii.com%3A1337&amp;tr=udp%3A%2F%2Ftracker.coppersurfer.tk%3A6969&amp;tr=udp%3A%2F%2Fexodus.desync.com%3A6969","seeders":1,"leechers":0,"uploader":"alex.bvx","files":-1,"time":1404940786,"description":"General\nComplete name                  : sao2-1.mp4\nFormat                         : MPEG-4\nFormat profile                 : Base Media\nCodec ID                       : isom\nFile size                      : 90.0 MiB\nDuration                       : 23mn 39s\nOverall bit rate mode          : Variable\nOverall bit rate               : 532 Kbps\nEncoded date                   : UTC 2014-07-05 16:56:17\nTagged date                    : UTC 2014-07-05 16:56:17\n\nVideo\nID                             : 1\nFormat                         : AVC\nFormat/Info                    : Advanced Video Codec\nFormat profile                 : &lt;a class=&quot;__cf_email__&quot; href=&quot;/cdn-cgi/l/email-protection&quot; data-cfemail=&quot;236b4a444b636f170d13&quot;&gt;[email&amp;#160;protected]&lt;/a&gt;&lt;script cf-hash='f9e31' type=&quot;text/javascript&quot;&gt;\n/* &lt;![CDATA[ */!function(){try{var t=&quot;currentScript&quot;in document?document.currentScript:function(){for(var t=document.getElementsByTagName(&quot;script&quot;),e=t.length;e--;)if(t[e].getAttribute(&quot;cf-hash&quot;))return t[e]}();if(t&amp;&amp;t.previousSibling){var e,r,n,i,c=t.previousSibling,a=c.getAttribute(&quot;data-cfemail&quot;);if(a){for(e=&quot;&quot;,r=parseInt(a.substr(0,2),16),n=2;a.length-n;n+=2)i=parseInt(a.substr(n,2),16)^r,e+=String.fromCharCode(i);e=document.createTextNode(e),c.parentNode.replaceChild(e,c)}}}catch(u){}}();/* ]]&gt; */&lt;/script&gt;\nFormat settings, CABAC         : Yes\nFormat settings, ReFrames      : 4 frames\nCodec ID                       : avc1\nCodec ID/Info                  : Advanced Video Coding\nDuration                       : 23mn 39s\nBit rate                       : 386 Kbps\nMaximum bit rate               : 2 004 Kbps\nWidth                          : 848 pixels\nHeight                         : 480 pixels\nDisplay aspect ratio           : 16:9\nFrame rate mode                : Constant\nFrame rate                     : 23.976 fps\nColor space                    : YUV\nChroma subsampling             : 4:2:0\nBit depth                      : 8 bits\nScan type                      : Progressive\nBits/(Pixel*Frame)             : 0.040\nStream size                    : 65.3 MiB (73%)\nWriting library                : x264 core 138 r2358 9e941d1\nEncoded date                   : UTC 2014-07-05 16:56:17\nTagged date                    : UTC 2014-07-05 16:56:19\n\nAudio\nID                             : 2\nFormat                         : AAC\nFormat/Info                    : Advanced Audio Codec\nFormat profile                 : LC\nCodec ID                       : 40\nDuration                       : 23mn 39s\nBit rate mode                  : Variable\nBit rate                       : 144 Kbps\nMaximum bit rate               : 185 Kbps\nChannel count                  : 2 channels\nChannel positions              : Front: L R\nSampling rate                  : 44.1 KHz\nCompression mode               : Lossy\nStream size                    : 24.0 MiB (27%)\nEncoded date                   : UTC 2014-07-05 16:47:02\nTagged date                    : UTC 2014-07-05 16:56:19\n\n\nSubtitle: Spanish (Hard coded)","torrent":{"xt":"urn:btih:bb6cedbe8223a5d39117a2ce1d81ea97bd79b572","amp;dn":"Sword+Art+Online+II+-+Cap-01+%5Bp%5D","amp;tr":["udp%3A%2F%2Ftracker.openbittorrent.com%3A80","udp%3A%2F%2Fopen.demonii.com%3A1337","udp%3A%2F%2Ftracker.coppersurfer.tk%3A6969","udp%3A%2F%2Fexodus.desync.com%3A6969"],"infoHash":"bb6cedbe8223a5d39117a2ce1d81ea97bd79b572","infoHashBuffer":{"type":"Buffer","data":[187,108,237,190,130,35,165,211,145,23,162,206,29,129,234,151,189,121,181,114]},"announce":[],"urlList":[]}}